<svg width="171" height="171" viewBox="0 0 171 171" fill="none" xmlns="http://www.w3.org/2000/svg">
<path d="M171 85.5C171 132.72 132.72 171 85.5 171C38.2797 171 0 132.72 0 85.5C0 38.2797 38.2797 0 85.5 0C132.72 0 171 38.2797 171 85.5Z" fill="#F3F3F3"/>
<g filter="url(#filter0_d_330_11878)">
<path d="M60.8704 147.845V148.509C60.8704 149.559 60.5575 150.406 59.9315 151.051C59.3055 151.696 58.4646 152.018 57.4087 152.018C56.3591 152.018 55.5181 151.696 54.8858 151.051C54.2598 150.406 53.9469 149.559 53.9469 148.509V140.694C53.9469 139.638 54.2598 138.791 54.8858 138.152C55.5181 137.507 56.3591 137.185 57.4087 137.185C58.4646 137.185 59.3055 137.507 59.9315 138.152C60.5575 138.791 60.8704 139.638 60.8704 140.694V141.358H58.689V140.694C58.689 140.296 58.5752 139.976 58.3476 139.736C58.12 139.49 57.807 139.366 57.4087 139.366C57.0103 139.366 56.6973 139.49 56.4697 139.736C56.2421 139.976 56.1283 140.296 56.1283 140.694V148.509C56.1283 148.907 56.2421 149.23 56.4697 149.477C56.6973 149.717 57.0103 149.837 57.4087 149.837C57.807 149.837 58.12 149.717 58.3476 149.477C58.5752 149.23 58.689 148.907 58.689 148.509V147.845H60.8704ZM67.2672 152.018C66.2176 152.018 65.3767 151.696 64.7444 151.051C64.1184 150.406 63.8054 149.559 63.8054 148.509V140.694C63.8054 139.638 64.1184 138.791 64.7444 138.152C65.3767 137.507 66.2176 137.185 67.2672 137.185C68.3231 137.185 69.1641 137.507 69.79 138.152C70.416 138.791 70.729 139.638 70.729 140.694V148.509C70.729 149.559 70.416 150.406 69.79 151.051C69.1641 151.696 68.3231 152.018 67.2672 152.018ZM67.2672 149.837C67.6655 149.837 67.9785 149.717 68.2062 149.477C68.4338 149.23 68.5476 148.907 68.5476 148.509V140.694C68.5476 140.296 68.4338 139.976 68.2062 139.736C67.9785 139.49 67.6655 139.366 67.2672 139.366C66.8689 139.366 66.5559 139.49 66.3283 139.736C66.1006 139.976 65.9868 140.296 65.9868 140.694V148.509C65.9868 148.907 66.1006 149.23 66.3283 149.477C66.5559 149.717 66.8689 149.837 67.2672 149.837ZM74.4283 151.715V137.488H77.8427C78.8986 137.488 79.7396 137.811 80.3656 138.456C80.9915 139.094 81.3045 139.942 81.3045 140.998V148.206C81.3045 149.255 80.9915 150.103 80.3656 150.747C79.7396 151.392 78.8986 151.715 77.8427 151.715H74.4283ZM76.6097 149.533H77.8427C78.2411 149.533 78.554 149.413 78.7817 149.173C79.0093 148.926 79.1231 148.604 79.1231 148.206V140.998C79.1231 140.599 79.0093 140.28 78.7817 140.04C78.554 139.793 78.2411 139.67 77.8427 139.67H76.6097V149.533ZM83.5382 151.715L86.3646 137.488H88.7167L91.5051 151.715H89.2668L88.8495 149.287H86.2033L85.7765 151.715H83.5382ZM86.5448 147.105H88.508L87.3889 140.466H87.6924L86.5448 147.105ZM84.4772 135.914L86.6681 133.078H88.3752L90.5756 135.914H88.6598L87.5311 134.33L86.393 135.914H84.4772ZM94.2936 151.715V137.488H96.3043L99.3109 148.898H98.7987L101.805 137.488H103.816V151.715H101.777V143.426L102.033 143.473L99.7851 151.715H98.3245L96.0767 143.473L96.3328 143.426V151.715H94.2936ZM113.56 137.488V139.67H109.909V143.226H113.048V145.408H109.909V149.533H113.56V151.715H107.727V137.488H113.56Z" fill="#022047"/>
</g>
<g filter="url(#filter1_f_330_11878)">
<path d="M110.302 57.0423V35.8219M107.953 57.0423V53.1356C107.873 52.0331 107.315 49.9239 104.764 49.9239H94.9597C92.5625 49.9239 88.631 49.5644 88.631 45.2503V41.1219M109.103 29.6234C109.61 29.6234 110.102 29.7943 110.5 30.1084C110.898 30.4226 111.178 30.8617 111.296 31.3547C111.413 31.8478 111.361 32.366 111.147 32.8256C110.933 33.2853 110.571 33.6595 110.119 33.8878C109.666 34.1161 109.15 34.1851 108.653 34.0838C108.156 33.9825 107.708 33.7167 107.381 33.3293C107.054 32.942 106.868 32.4557 106.851 31.9492C106.835 31.4426 106.99 30.9454 107.291 30.5377M107.953 35.8361C108.318 35.942 108.704 35.9988 109.103 35.9988C109.52 35.9988 109.923 35.9369 110.302 35.8219M107.953 35.8361C106.235 35.3381 104.98 33.7538 104.98 31.8763C104.98 29.5996 106.826 27.7539 109.103 27.7539C111.381 27.7539 113.227 29.5996 113.227 31.8763C113.227 33.7363 111.995 35.3085 110.302 35.8219M107.953 35.8361V48.5099C107.473 48.3182 106.164 47.9348 104.764 47.9348C103.364 47.9348 96.2302 47.9348 94.9597 47.9348C93.6892 47.9348 90.8364 47.8579 90.8364 45.2503C90.8364 43.2696 90.8364 41.6705 90.8364 41.0161M89.9384 34.8835C90.4374 34.9726 90.8917 35.2274 91.228 35.6066C91.5643 35.9859 91.7629 36.4674 91.7917 36.9734C91.8205 37.4794 91.6778 37.9803 91.3866 38.3952C91.0955 38.8101 90.6729 39.1147 90.1872 39.2599C89.7015 39.405 89.1811 39.3822 88.71 39.1951C88.2389 39.0079 87.8446 38.6675 87.591 38.2287C87.3373 37.7899 87.239 37.2784 87.312 36.7768M88.631 41.1219C88.6922 41.1357 88.7541 41.1482 88.8165 41.1594C89.5162 41.2844 90.2061 41.2251 90.8364 41.0161M88.631 41.1219C86.4932 40.6395 85.0935 38.5548 85.483 36.376C85.8836 34.1348 88.0256 32.6426 90.2673 33.0431C92.509 33.4437 94.0015 35.5853 93.6009 37.8265C93.3253 39.3682 92.2257 40.5555 90.8364 41.0161M129.807 45.5097C129.674 45.907 129.42 46.2576 129.079 46.5173C128.738 46.777 128.323 46.9341 127.889 46.9687C127.454 47.0032 127.018 46.9138 126.637 46.7115C126.255 46.5093 125.945 46.2035 125.745 45.8326C125.546 45.4618 125.465 45.0426 125.515 44.6281C125.564 44.2137 125.741 43.8225 126.023 43.5041C126.304 43.1857 126.679 42.9544 127.098 42.8394C127.517 42.7244 127.963 42.7308 128.378 42.858M113.106 61.0449C115.479 61.0449 116.438 59.535 116.438 57.7374C116.438 55.4525 116.438 50.4273 116.438 48.6057C116.438 46.3288 118.14 44.1477 120.777 44.1477H123.847M112.195 62.6747H128.258M123.907 45.8326C123.095 45.8326 121.869 45.8326 120.921 45.8326C119.411 45.8326 118.308 46.9687 118.308 48.6057V57.7374C118.276 58.752 118.035 60.834 117.325 61.0449H128.203M123.907 45.8326C124.355 47.4294 125.886 48.6057 127.706 48.6057C129.877 48.6057 131.638 46.9317 131.638 44.8668C131.638 42.8018 129.877 41.1278 127.706 41.1278C125.793 41.1278 124.2 42.4268 123.847 44.1477M123.907 45.8326C123.821 45.5245 123.775 45.2008 123.775 44.8668C123.775 44.6208 123.8 44.3804 123.847 44.1477M133.685 61.2538C133.798 61.6943 133.754 62.1603 133.561 62.5722C133.369 62.9841 133.039 63.3165 132.629 63.5128C132.219 63.7091 131.753 63.757 131.312 63.6486C130.87 63.5401 130.48 63.2819 130.207 62.9179C129.935 62.5539 129.797 62.1067 129.817 61.6525C129.837 61.1982 130.014 60.765 130.318 60.4268C130.622 60.0885 131.034 59.866 131.483 59.7972C131.933 59.7285 132.392 59.8177 132.784 60.0497M128.203 61.0449C128.16 61.2699 128.137 61.5023 128.137 61.74C128.137 62.0631 128.179 62.3764 128.258 62.6747M128.203 61.0449C128.528 59.3653 130.006 58.0969 131.781 58.0969C133.793 58.0969 135.424 59.728 135.424 61.74C135.424 63.752 133.793 65.383 131.781 65.383C130.091 65.383 128.671 64.2338 128.258 62.6747M117.497 67.8384C117.764 67.4827 118.189 67.2525 118.668 67.2525C119.475 67.2525 120.13 67.9071 120.13 68.7145C120.13 69.522 119.475 70.1766 118.668 70.1766C117.86 70.1766 117.205 69.522 117.205 68.7145C117.205 68.4925 117.255 68.282 117.343 68.0935M117.497 67.8384L112.651 64.2805V64.5921L114.425 65.9157M117.497 67.8384C117.438 67.9176 117.386 68.0031 117.343 68.0935M117.343 68.0935L114.61 66.0541M114.425 65.9157L111.284 70.1766L111.5 70.3683M114.425 65.9157L114.61 66.0541M111.5 70.3683L111.638 70.1766M111.5 70.3683L113.093 71.8469M114.61 66.0541L111.638 70.1766M111.638 70.1766L113.265 71.6605M113.093 71.8469C112.906 72.0885 112.794 72.39 112.794 72.7171C112.794 73.5114 113.449 74.1552 114.257 74.1552C115.064 74.1552 115.719 73.5114 115.719 72.7171C115.719 71.9229 115.064 71.2791 114.257 71.2791C113.874 71.2791 113.525 71.4238 113.265 71.6605M113.093 71.8469C113.144 71.7799 113.202 71.7175 113.265 71.6605M104.524 68.4749H101.671V67.9236H108.195M104.524 68.4749V73.0287M104.524 68.4749H104.86M104.524 73.0287H104.86M104.524 73.0287C104.688 73.7062 105.99 74.3381 106.722 74.3697M104.86 73.0287V68.4749M104.86 73.0287C105.043 73.7629 106.164 74.0432 106.708 74.1009M104.86 68.4749H108.164M106.708 74.1009C106.706 74.1268 106.705 74.1529 106.705 74.1792C106.705 74.2439 106.711 74.3075 106.722 74.3697M106.708 74.1009C106.754 73.4358 107.379 72.9089 108.144 72.9089C108.938 72.9089 109.582 73.4776 109.582 74.1792C109.582 74.8807 108.938 75.4494 108.144 75.4494C107.423 75.4494 106.826 74.9809 106.722 74.3697M108.164 68.4749C108.28 69.0737 108.871 69.5294 109.582 69.5294C110.377 69.5294 111.021 68.9607 111.021 68.2592C111.021 67.5576 110.377 66.9889 109.582 66.9889C108.919 66.9889 108.361 67.3849 108.195 67.9236M108.164 68.4749C108.151 68.4048 108.144 68.3327 108.144 68.2592C108.144 68.143 108.161 68.0305 108.195 67.9236M112.027 79.0925H129.173M112.027 80.7703H116.055C116.894 80.7703 118.38 81.8728 118.38 83.167C118.372 85.1483 118.361 89.6526 118.38 91.8193C118.404 94.5277 120.25 96.1335 122.048 96.1335H125.102M126.921 96.5446C126.659 96.2899 126.479 95.9634 126.403 95.6063C126.327 95.2493 126.359 94.8778 126.494 94.5388C126.63 94.1998 126.862 93.9085 127.163 93.7017C127.464 93.495 127.82 93.3821 128.185 93.3774C128.55 93.3726 128.908 93.4762 129.214 93.675C129.52 93.8738 129.761 94.1589 129.905 94.4943M128.937 96.9184C128.699 97.0209 128.442 97.0714 128.185 97.0681M125.101 94.3161C125.017 94.6038 124.972 94.908 124.972 95.2227C124.972 95.539 125.018 95.8446 125.102 96.1335M125.101 94.3161C125.493 92.9704 126.736 91.9871 128.209 91.9871C129.996 91.9871 131.445 93.4357 131.445 95.2227C131.445 97.0097 129.996 98.4583 128.209 98.4583C126.738 98.4583 125.496 97.4771 125.102 96.1335M125.101 94.3161C123.801 94.3228 121.983 94.3279 121.616 94.3119C121.065 94.288 120.01 93.2813 120.01 91.6515V83.167C120.05 82.6877 120.005 81.5372 119.507 80.7703H129.136M134.226 80.0033C134.226 79.5977 134.09 79.2037 133.841 78.8837C133.592 78.5638 133.243 78.3362 132.849 78.237C132.456 78.1379 132.041 78.1728 131.669 78.3363C131.298 78.4998 130.992 78.7826 130.8 79.1397C130.607 79.4968 130.54 79.9079 130.608 80.3078C130.675 80.7077 130.875 81.0735 131.174 81.3473C131.258 81.4243 131.349 81.4928 131.445 81.5521M132.849 81.7696C133.046 81.7199 133.235 81.6374 133.407 81.524M129.173 79.0925C129.091 79.3821 129.048 79.6876 129.048 80.0033C129.048 80.2672 129.078 80.5239 129.136 80.7703M129.173 79.0925C129.57 77.6819 130.866 76.6478 132.404 76.6478C134.257 76.6478 135.76 78.1501 135.76 80.0033C135.76 81.8565 134.257 83.3588 132.404 83.3588C130.814 83.3588 129.483 82.2538 129.136 80.7703M96.9727 94.24L105.746 99.0952M99.5377 94.5988L96.9727 93.2094M99.5377 94.5988C100.88 95.0404 101.535 94.1761 101.695 93.6888L103.973 89.5903C104.452 88.5837 106.106 87.3853 108.384 89.2787L108.395 89.2881M99.5377 94.5988L100.88 95.326M100.88 95.326C101.216 95.5077 101.863 95.3665 102.103 94.9351L104.764 90.3573C105.291 89.3986 106.154 88.9911 107.017 89.5903L107.828 90.2158M100.88 95.326L106.217 98.2165M111.705 89.8155C111.917 90.2129 111.983 90.6665 111.892 91.1037C111.801 91.5409 111.559 91.9363 111.204 92.2265C110.849 92.5167 110.403 92.685 109.936 92.7043C109.469 92.7235 109.009 92.5927 108.63 92.3328C108.25 92.0729 107.973 91.6989 107.843 91.2708C107.738 90.9254 107.733 90.5608 107.828 90.2158M110.147 88.7483C109.684 88.684 109.213 88.7697 108.807 88.9916C108.656 89.0743 108.518 89.1741 108.395 89.2881M107.828 90.2158C107.85 90.1333 107.878 90.0519 107.912 89.9721C108.022 89.7128 108.187 89.4802 108.395 89.2881M105.746 99.0952C105.715 99.2298 105.699 99.3696 105.699 99.5129C105.699 100.598 106.632 101.478 107.784 101.478C108.936 101.478 109.87 100.598 109.87 99.5129C109.87 98.4275 108.936 97.5476 107.784 97.5476C107.16 97.5476 106.599 97.8064 106.217 98.2165M105.746 99.0952C105.822 98.7633 105.987 98.4627 106.217 98.2165M93.185 94.9351V117.043M95.1028 94.5988V100.52C95.1028 102.245 96.5412 103.252 98.3151 103.252C99.7343 103.252 106.654 103.252 109.936 103.252C113.082 103.252 114.712 106.607 114.712 108.189C114.712 109.067 114.712 110.564 114.712 111.772M94.048 123.528C93.5156 123.528 92.9997 123.35 92.5881 123.023C92.1765 122.695 91.8948 122.24 91.7909 121.734C91.687 121.229 91.7674 120.704 92.0184 120.249C92.2694 119.794 92.6755 119.438 93.1674 119.24C93.6593 119.043 94.2066 119.017 94.7161 119.166C95.2256 119.316 95.6657 119.632 95.9615 120.061C96.0434 120.18 96.1128 120.305 96.1693 120.435M95.6753 122.876C95.9691 122.591 96.1762 122.237 96.2779 121.851M93.185 117.043C91.1355 117.434 89.5892 119.191 89.5892 121.299C89.5892 123.695 91.5855 125.638 94.048 125.638C96.5106 125.638 98.5069 123.695 98.5069 121.299C98.5069 119.257 97.0563 117.544 95.1028 117.083M93.185 117.043C93.4642 116.989 93.7528 116.961 94.048 116.961C94.4114 116.961 94.7647 117.004 95.1028 117.083M95.1028 117.083V104.498C96.0617 105.505 97.7877 105.457 98.3151 105.457C98.737 105.457 106.194 105.457 109.87 105.457C111.204 105.457 112.555 106.368 112.555 108.189C112.555 109.179 112.555 110.622 112.555 111.772M112.776 118.126C112.4 117.962 112.08 117.696 111.853 117.357C111.627 117.018 111.504 116.622 111.5 116.217C111.496 115.811 111.61 115.412 111.829 115.069C112.048 114.726 112.363 114.452 112.735 114.281C113.107 114.111 113.521 114.049 113.928 114.105C114.335 114.161 114.716 114.332 115.027 114.597C115.121 114.678 115.208 114.765 115.285 114.86M115.679 116.793C115.756 116.535 115.783 116.267 115.758 116.003M112.555 111.772C110.627 112.251 109.199 113.985 109.199 116.051C109.199 118.486 111.184 120.461 113.634 120.461C116.083 120.461 118.068 118.486 118.068 116.051C118.068 113.985 116.64 112.251 114.712 111.772M112.555 111.772C112.9 111.686 113.261 111.641 113.634 111.641C114.006 111.641 114.367 111.686 114.712 111.772" stroke="url(#paint0_linear_330_11878)" stroke-width="0.948436" stroke-linecap="round" stroke-linejoin="round"/>
</g>
<path d="M82.6233 50.4944L82.7072 50.596V50.4642V24.7349V24.7114L82.6885 24.6971C79.1411 21.9974 75.2421 21.3945 71.8146 21.7677C68.3881 22.1407 65.4303 23.4892 63.7601 24.6964L63.6831 24.752L63.7738 24.7802C67.0858 25.8078 69.3917 27.1155 70.9283 28.3312C72.4601 29.5431 73.2249 30.6615 73.4623 31.3183C73.4601 31.9833 73.1832 32.3456 72.8434 32.5336C72.5052 32.7207 72.0979 32.7385 71.8191 32.6954C66.6565 26.5426 59.2036 26.1867 53.7932 29.1242C48.3912 32.0572 45.0196 38.2774 47.9968 45.2881C43.729 46.5771 40.9472 48.5406 39.1868 50.7653C37.4195 52.9986 36.6843 55.4918 36.505 57.8219C36.3258 60.1517 36.7022 62.3195 37.1591 63.9047C37.3875 64.6974 37.6363 65.3452 37.8464 65.7956C37.9513 66.0205 38.047 66.1972 38.1262 66.3184C38.1657 66.3787 38.202 66.4267 38.2341 66.4602C38.2377 66.4639 38.2412 66.4674 38.2447 66.4709C33.5349 69.0382 31.7531 73.0714 31.4373 76.7337C31.2786 78.5735 31.4898 80.3201 31.8853 81.7413C32.2803 83.1606 32.8609 84.2616 33.4463 84.8046L33.4813 84.8371L33.5135 84.8019C38.0798 79.8037 44.5982 78.4184 48.052 79.0988L48.1029 79.1088L48.1083 79.0573C48.8038 72.5303 51.4022 69.8456 54.012 68.7794C55.3193 68.2453 56.6336 68.1155 57.7214 68.1164C58.2652 68.1168 58.752 68.1499 59.153 68.1814C59.2182 68.1865 59.2812 68.1915 59.3419 68.1964C59.653 68.2215 59.9036 68.2417 60.0723 68.2361C60.8129 68.2118 61.2837 68.8529 61.3311 69.5C61.3548 69.8219 61.2723 70.1382 61.0707 70.3666C60.8702 70.5939 60.5464 70.7406 60.0738 70.7144C57.6306 70.5433 55.8573 70.883 54.5657 71.5159C53.2734 72.1492 52.4667 73.0745 51.9545 74.0679C51.4427 75.0604 51.2252 76.1202 51.1091 77.0233C51.0609 77.3986 51.0301 77.7476 51.0032 78.0533C50.9977 78.1154 50.9924 78.1756 50.9871 78.234C50.9557 78.5816 50.9261 78.8574 50.8751 79.0395L50.8616 79.0876L50.9104 79.0985C56.7057 80.3965 59.7418 83.8007 61.4603 85.9391C61.6266 86.2735 61.6671 86.5524 61.6271 86.7835C61.5869 87.0155 61.4648 87.2049 61.297 87.3578C60.9665 87.6588 60.4633 87.8138 60.089 87.8644C55.1538 82.5096 50.0427 80.7222 45.5535 81.2056C41.0608 81.6894 37.2003 84.4467 34.7711 88.1582C32.3419 91.8696 31.341 96.5398 32.5728 100.854C33.8031 105.164 37.2584 109.11 43.7247 111.39C43.7053 116.968 45.7004 120.45 48.1754 122.585C50.6456 124.715 53.5894 125.501 55.4727 125.696C60.9131 131.7 66.8573 132.99 71.8733 132.166C76.8891 131.342 80.9752 128.405 82.6986 125.964L82.7072 125.952V125.937V105.925V105.915L82.7031 105.906C80.2671 100.462 76.8955 98.195 73.6996 97.3128C71.093 96.5934 68.6044 96.7962 66.8498 96.9393C66.4564 96.9714 66.0998 97.0004 65.7871 97.0154C65.3226 97.0377 64.9786 96.8934 64.7505 96.6645C64.5218 96.4349 64.4057 96.1162 64.4051 95.7832C64.404 95.1176 64.8645 94.4011 65.797 94.2508C74.6873 92.8178 79.9413 97.4132 82.6239 100.524L82.7072 100.621V100.493V55.0382V55.0279L82.703 55.0186C78.4002 45.5543 63.2059 43.546 57.177 55.858C56.8011 55.9954 56.2517 56.0865 55.797 55.9296C55.5675 55.8505 55.3623 55.7083 55.2139 55.4763C55.0658 55.2448 54.972 54.9203 54.9712 54.4725C55.4696 52.5573 56.856 50.6399 58.8069 49.0178C60.7594 47.3946 63.2741 46.0698 66.0204 45.3411C71.5123 43.8839 77.9253 44.8109 82.6233 50.4944ZM69.5326 112.826L69.5332 112.827L69.5401 112.82C70.0918 112.268 70.8767 112.365 71.3031 112.791C71.5154 113.003 71.638 113.297 71.5987 113.633C71.5594 113.97 71.3568 114.356 70.9058 114.751C68.4187 116.765 65.9862 117.485 63.7906 117.334C61.5942 117.183 59.6296 116.16 58.0803 114.679C56.5307 113.198 55.3982 111.259 54.8661 109.282C54.334 107.305 54.4035 105.293 55.2518 103.66C55.6392 102.914 56.3753 102.766 56.9623 102.914C57.2563 102.989 57.508 103.136 57.6566 103.316C57.804 103.494 57.8485 103.699 57.7412 103.902C56.4428 106.354 57.2066 110.016 59.3815 112.347C60.4705 113.514 61.9153 114.351 63.6363 114.536C65.3574 114.722 67.3496 114.255 69.5326 112.826ZM84.3303 68.552H84.2829V68.5994V73.7453V73.7927H84.3303H94.5938C95.4522 75.1669 96.9661 76.0798 98.6909 76.0798C101.367 76.0798 103.536 73.8821 103.536 71.1724C103.536 68.4627 101.367 66.2649 98.6909 66.2649C96.9661 66.2649 95.4522 67.1778 94.5938 68.552H84.3303ZM84.3303 78.272H84.2829V78.3194V83.4653V83.5127H84.3303H104.253C105.106 84.9135 106.635 85.8477 108.38 85.8477C111.056 85.8477 113.225 83.65 113.225 80.9403C113.225 78.2306 111.056 76.0329 108.38 76.0329C106.675 76.0329 105.176 76.9246 104.313 78.272H84.3303ZM84.3303 58.832H84.2829V58.8794V63.7394V63.7869H84.3303H103.935C104.765 65.6443 106.557 66.9315 108.635 66.9315C111.506 66.9315 113.829 64.476 113.829 61.4524C113.829 58.4288 111.506 55.9732 108.635 55.9732C106.665 55.9732 104.953 57.1298 104.072 58.832H84.3303ZM84.3303 88.2778H84.2829V88.3252V93.1852V93.2327H84.3303H89.7585C90.5977 94.6926 92.1597 95.6744 93.9483 95.6744C96.6246 95.6744 98.7931 93.4767 98.7931 90.767C98.7931 88.0573 96.6246 85.8596 93.9483 85.8596C92.1693 85.8596 90.6145 86.8309 89.7721 88.2778H84.3303Z" fill="#021E46" stroke="#021E46" stroke-width="0.0948436"/>
<defs>
<filter id="filter0_d_330_11878" x="53.5679" y="133.078" width="60.372" height="19.6982" filterUnits="userSpaceOnUse" color-interpolation-filters="sRGB">
<feFlood flood-opacity="0" result="BackgroundImageFix"/>
<feColorMatrix in="SourceAlpha" type="matrix" values="0 0 0 0 0 0 0 0 0 0 0 0 0 0 0 0 0 0 127 0" result="hardAlpha"/>
<feOffset dy="0.379374"/>
<feGaussianBlur stdDeviation="0.189687"/>
<feComposite in2="hardAlpha" operator="out"/>
<feColorMatrix type="matrix" values="0 0 0 0 0 0 0 0 0 0 0 0 0 0 0 0 0 0 0.25 0"/>
<feBlend mode="normal" in2="BackgroundImageFix" result="effect1_dropShadow_330_11878"/>
<feBlend mode="normal" in="SourceGraphic" in2="effect1_dropShadow_330_11878" result="shape"/>
</filter>
<filter id="filter1_f_330_11878" x="84.7537" y="27.0896" width="51.6704" height="99.2114" filterUnits="userSpaceOnUse" color-interpolation-filters="sRGB">
<feFlood flood-opacity="0" result="BackgroundImageFix"/>
<feBlend mode="normal" in="SourceGraphic" in2="BackgroundImageFix" result="shape"/>
<feGaussianBlur stdDeviation="0.0948436" result="effect1_foregroundBlur_330_11878"/>
</filter>
<linearGradient id="paint0_linear_330_11878" x1="66.0483" y1="46.6404" x2="160.398" y2="86.5361" gradientUnits="userSpaceOnUse">
<stop offset="0.255208" stop-color="#5E8D93"/>
<stop offset="0.463542" stop-color="#297C91"/>
<stop offset="0.605304" stop-color="#5BA0B2"/>
<stop offset="0.722551" stop-color="#1E8DAA"/>
<stop offset="0.900521" stop-color="#5BA0B2"/>
</linearGradient>
</defs>
</svg>
